<svg viewBox="0 0 331.81 33.22" version="1.1" xml:space="preserve" xmlns:xlink="http://www.w3.org/1999/xlink" xmlns="http://www.w3.org/2000/svg" xmlns:svg="http://www.w3.org/2000/svg"><defs><linearGradient id="a"><stop style="stop-color:#d400f4;stop-opacity:.35220125" offset="0"/><stop style="stop-color:#d300f4;stop-opacity:0" offset="1"/></linearGradient><radialGradient xlink:href="#a" id="b" cx="149.94" cy="136.27" fx="149.94" fy="136.27" r="155.82" gradientTransform="matrix(3.1796185,0,0,0.84261615,1221.7378,336.32462)" gradientUnits="userSpaceOnUse"/></defs><g transform="translate(-820.43985,-494.65507)"><path style="fill:#fff;stroke-width:2.13318" d="m 1075.7441,527.08744 c -2.2457,-1.12063 -3.2325,-1.8906 -4.6701,-4.34341 -1.2966,-2.21207 -1.3933,-4.68834 -0.1635,-7.13888 0.904,-1.80132 3.4167,-3.86793 3.4167,-3.86793 0,0 -0.7299,1.01097 -1.2046,2.16581 -1.0681,2.59836 -0.4205,4.26585 0.4342,5.58033 1.4134,2.17369 2.76,2.65459 5.0561,3.39981 3.641,1.18179 9.3625,-1.59721 13.1106,-6.368 1.7435,-2.21915 9.0482,-14.7088 9.0482,-15.47062 0,-0.15957 -5.0708,-0.22176 -11.2684,-0.13845 -7.9251,0.10653 -12.8645,-0.62091 -12.8645,-0.62091 0,0 1.2981,-0.2096 4.1496,-0.53235 2.5342,-0.28684 7.4511,-0.78159 10.9265,-1.09948 3.4753,-0.31787 10.2047,-1.26202 14.9543,-2.0981 7.2387,-1.27424 11.4476,-1.90018 11.4476,-1.90018 0,0 -1.4869,0.88435 -4.0481,2.08982 -7.3607,3.75468 -12.6139,8.46427 -18.5386,16.62016 -6.4394,8.86445 -9.8778,12.34306 -13.5631,13.72195 -2.8238,1.05652 -4.1064,1.05663 -6.2229,4.9e-4 z M 821.48318,526.9251 c 1.0426,-0.31921 4.0756,-1.09206 6.74,-1.71742 8.61885,-2.02298 14.48524,-4.17497 18.27193,-6.70275 3.35448,-2.23926 3.50606,-2.41695 7.63493,-8.94981 2.31687,-3.66587 4.84154,-7.4919 5.61037,-8.5023 0.76883,-1.0104 1.29834,-1.93662 1.17668,-2.0583 -0.12166,-0.12159 -1.98788,0.0772 -4.14717,0.4421 -6.42508,1.08551 -13.24212,4.28502 -18.33474,8.6052 -1.50557,1.27722 -2.7435,2.00561 -2.7435,2.00561 0,0 2.96895,-3.75334 6.20091,-7.58999 4.48328,-5.32213 6.03111,-6.89784 6.52937,-6.64704 0.35919,0.18089 7.28776,0.42352 15.39682,0.53935 8.10905,0.11583 15.54556,0.0347 14.93515,0.20619 -0.61041,0.17151 -5.34423,1.00459 -8.92918,1.46489 -3.58495,0.4603 -6.83869,0.95995 -7.23054,1.11032 -0.39184,0.15039 -1.29377,1.43428 -2.00428,2.85319 -0.7105,1.41888 -2.76726,5.04409 -4.57057,8.05601 -4.10795,6.86122 -5.66853,10.03802 -5.34512,10.88083 0.30337,0.79058 4.07806,1.55441 6.24551,1.96731 0.85934,0.1637 2.06119,0.52283 2.06119,0.52283 0,0 -0.56327,0.39657 -10.89484,1.36663 -4.01923,0.37738 -9.50022,1.16148 -12.21624,1.48523 -3.91762,0.46698 -15.43002,0.98249 -15.43002,0.98249 0,0 0.3339,-0.10336 1.04334,-0.32057 z m 40.16545,-0.48161 c -0.99642,-0.99643 -1.0001,-2.53346 -0.94828,-4.50405 0.19589,-3.62815 1.75816,-6.89317 4.06843,-9.26628 1.07729,-1.10659 2.08982,-1.31972 2.08982,-1.31972 0,0 -0.21692,0.29314 -0.76127,1.05762 -1.08985,1.53057 -1.54252,4.8853 -0.83705,6.2035 0.68066,1.27182 2.88388,1.16279 6.66743,-0.32998 3.58586,-1.41475 10.87876,-5.87546 12.59637,-7.70458 l 1.19968,-1.27756 -9.58343,0.2931 -9.58343,0.29308 c 0,0 -0.34864,-0.0107 -0.5582,-0.7794 -0.20954,-0.76873 1.89679,-4.50276 3.44477,-6.16135 1.48693,-1.59318 7.79457,-4.6112 12.48904,-5.97564 4.40488,-1.28027 9.33635,-1.79594 10.61757,-1.11025 2.0409,1.09227 1.42345,5.41749 -1.31813,9.23358 -1.11502,1.55203 -2.21719,2.00612 -2.21719,2.00612 0,0 0.17744,-0.43625 0.52174,-1.2603 0.83308,-1.99384 0.77504,-4.15703 -0.13362,-4.97935 -0.40919,-0.37032 -1.67492,-0.88192 -2.81273,-1.13692 -2.71892,-0.60932 -8.13457,0.40853 -12.24014,2.30048 -3.40523,1.56921 -7.10939,4.78918 -6.87216,5.97389 0.1833,0.91536 1.89849,0.89642 8.23669,-0.0909 4.50807,-0.70226 11.17824,-0.79936 12.33634,-0.17961 0.78075,0.41785 0.7803,0.45565 -0.0218,1.81521 -2.15655,3.65507 -12.02243,11.85104 -19.2509,15.99248 -4.01359,2.2995 -5.54238,2.49396 -7.12951,0.90683 z m 23.33933,0.67558 c -2.05246,-0.39829 -3.26607,-1.52844 -3.26607,-3.04149 0,-1.50777 2.77185,-7.07304 5.61553,-11.27476 2.31641,-3.42267 12.15602,-15.59246 13.75352,-16.9742 0.93363,-0.80752 -6.03572,8.96883 -9.3538,13.36923 -0.87351,1.15845 -2.27459,3.49278 -3.11351,5.18745 -1.34388,2.71468 -1.50203,3.36206 -1.32952,5.44231 0.16067,1.93742 0.40986,2.54524 1.38866,3.38717 1.04429,0.89826 1.5114,1.00498 3.75067,0.857 5.44141,-0.35961 11.6632,-4.9638 19.53036,-14.45267 7.40258,-8.9285 8.76894,-10.54082 10.15826,-11.98684 0.91074,-0.94793 1.47358,-1.48697 0.74068,-0.44002 -1.71277,2.44668 -1.66356,2.57113 -0.61765,2.34433 0.53344,-0.11562 4.19245,-0.41328 8.13114,-0.66135 12.88563,-0.81155 17.60036,-1.47797 21.20106,-2.1234 3.23931,-0.58065 5.00186,-0.89794 5.00186,-0.89794 0,0 -0.67838,0.42568 -1.34919,0.78467 -0.69504,0.37196 -1.21797,0.72593 -1.47437,0.93364 -0.14218,0.11518 -1.07153,0.90594 -2.12375,1.69863 -2.58952,1.95081 -6.08084,6.37601 -8.56581,10.85707 -4.69899,8.47352 -8.02177,12.81355 -11.31872,14.78391 -1.97709,1.18156 -2.77405,1.40388 -5.28522,1.47436 -2.50405,0.0702 -3.15886,-0.0657 -4.27434,-0.88763 -1.27901,-0.94244 -1.44846,-0.95829 -5.8319,-0.54546 -2.48303,0.23384 -7.92673,0.72343 -12.0971,1.08797 -4.17038,0.36456 -9.10884,0.84695 -10.97436,1.07203 -3.79008,0.45726 -5.96306,0.45886 -8.29643,0.006 z m 35.06765,-3.55272 c 0,-0.0904 -0.37496,-0.99095 -0.83325,-2.00092 -1.06735,-2.35224 -1.07313,-5.57748 -0.0134,-7.52319 l 0.94889,-1.45007 c 0,0 -0.32577,1.41962 -0.38943,2.15423 -0.13152,1.51755 -0.042,2.68333 0.76237,3.91521 0.54486,0.8344 1.35372,1.69058 2.45005,2.68105 2.44115,2.20542 4.93183,2.48101 7.98337,0.88333 3.09547,-1.62069 4.3168,-2.70842 6.16137,-5.48739 1.53299,-2.30955 5.32477,-11.97159 5.89867,-15.03072 l 0.29394,-1.56686 -6.04969,-0.0307 c -3.32733,-0.0171 -7.85053,-0.0892 -10.05156,-0.16084 -6.00368,-0.19519 -6.5004,-0.055 -7.92677,2.23642 -0.67003,1.07636 -2.2767,3.66305 -3.57039,5.74824 -2.55748,4.12219 -4.93158,9.65913 -4.93158,11.5016 0,1.52646 1.05968,2.98176 2.68686,3.68995 1.16095,0.50527 6.58064,0.86821 6.58064,0.44068 z m 8.98212,3.3345 c 0.42226,-0.31313 5.43032,-2.11475 11.12902,-4.00362 5.6987,-1.88886 11.06732,-3.7945 11.93028,-4.23474 1.57677,-0.8044 4.01313,-3.44604 6.7866,-7.35838 1.36333,-1.92317 5.4032,-9.38963 5.4032,-9.9862 0,-0.58664 -3.05026,-0.92818 -6.87008,-1.47234 -2.10618,-0.30004 -3.82426,-0.73611 -3.82426,-0.73611 0,0 1.56518,-0.22906 4.35002,-0.4298 10.85437,-0.78241 28.26123,-2.61608 30.69696,-2.98674 0.56929,-0.0866 1.0275,-0.11234 1.0275,-0.11234 0,0 -0.37965,0.18613 -0.55811,0.30113 -0.36494,0.23517 -2.73448,0.93043 -5.26563,1.54503 -14.84515,3.60467 -17.21061,4.60574 -19.34578,8.18731 -0.46337,0.77729 -1.24755,2.0912 -1.74262,2.91981 -3.40846,5.70486 -6.87492,12.09316 -6.75711,12.45256 0.21357,0.65151 3.55269,0.53175 6.11023,0.21585 1.25773,-0.15535 3.13406,-0.33018 3.13406,-0.33018 0,0 -4.41419,2.07864 -7.53873,2.6757 -1.8237,0.34847 -6.34882,0.90892 -10.05581,1.24545 -7.14096,0.64826 -14.89596,1.65286 -17.69249,2.29191 -1.46128,0.33395 -1.58306,0.30948 -0.91725,-0.1843 z m 40.93597,-6.53444 c 0.88479,-0.40662 3.5541,-1.379 5.83852,-2.40032 2.28446,-1.0213 5.57219,-1.98486 5.57219,-1.98486 0,0 -1.57022,1.03067 -2.7575,1.8 -2.61285,1.69306 -3.83829,3.30459 -2.93669,3.86184 0.99882,0.6173 4.98671,0.95119 8.14275,0.68175 3.73635,-0.31898 11.5741,-2.49606 14.27144,-3.96413 2.23759,-1.21788 6.25139,-5.2495 5.99349,-6.0319 -0.2486,-0.754 -3.2229,-0.44979 -4.70497,-0.3866 -1.99429,0.085 -9.38347,1.84087 -11.3055,2.83145 -0.92676,0.47764 -3.01194,1.92912 -4.63376,3.22554 -1.62181,1.29639 -3.11841,2.35816 -3.32579,2.35944 -0.20735,10e-4 0.61164,-1.04302 1.82,-2.3207 1.26447,-1.33697 2.13866,-2.62625 2.0595,-3.03731 -0.19646,-1.01987 -2.48206,-1.41112 -6.66183,-1.14035 -3.1249,0.20243 -3.75484,0.12244 -4.94966,-0.62933 -0.75299,-0.47372 -1.36907,-1.06307 -1.36907,-1.30967 0,-1.69649 4.13467,-6.0834 8.08135,-8.5744 5.79054,-3.65477 10.87405,-4.83412 22.88053,-5.30815 7.7968,-0.30784 9.9003,-0.53441 13.2552,-1.42767 2.1933,-0.58395 4.1206,-0.92891 4.1206,-0.92891 0,0 -3.5085,2.31675 -15.6908,9.51902 -1.8535,1.09579 -4.41264,2.49883 -5.68692,3.11783 -1.20113,0.58347 -2.22466,1.0513 -2.22466,1.0513 0,0 0.68821,-0.51653 1.17153,-0.88235 0.69505,-0.52608 2.10899,-1.7462 3.14205,-2.71146 1.7193,-1.60648 1.8375,-1.84437 1.3972,-2.8108 -0.7811,-1.71429 -2.77485,-2.11635 -7.92466,-1.59805 -7.24855,0.72952 -14.15241,3.5037 -18.16613,7.29971 -1.23697,1.16988 -3.72236,3.22712 -3.72236,3.64268 0,1.18624 4.44406,0.66139 8.95532,-0.16765 3.36405,-0.61823 4.37084,-1.02791 7.96256,-3.24019 2.26136,-1.39286 4.9244,-3.19853 5.91787,-4.01259 0.99346,-0.81407 1.80629,-1.35589 1.80629,-1.20405 0,0.15188 -1.23215,1.76535 -2.73813,3.58566 -1.50596,1.82028 -2.73811,3.52057 -2.73811,3.77841 0,0.33295 1.39581,0.38909 4.81632,0.19369 4.76753,-0.27228 8.46563,0.23096 9.14463,1.24441 0.4193,0.6259 -0.3342,2.75688 -1.5285,4.32272 -2.9108,3.81619 -11.17114,7.91676 -18.21449,9.04195 -1.96745,0.3143 -4.20548,0.25858 -8.73995,-0.21761 -9.40003,-0.98715 -11.34737,-0.49489 -19.92343,1.52143 -0.52827,0.1242 -1.89424,0.43003 -1.89424,0.43003 0,0 12.33151,-5.76928 15.48781,-7.21981 z m 16.84997,-7.16667 c 0.17748,-0.11989 0.61941,-0.31637 1.02887,-0.42126 0.26857,-0.0689 1.29773,-0.31304 1.52926,-0.38143 0.0542,-0.016 0.40723,-0.10441 0.40723,-0.10441 0,0 -1.04087,-0.29553 -1.13547,-0.51418 -0.0798,-0.18442 0.46391,-0.76938 0.74533,-1.0918 0,0 -0.2326,0.11531 -0.62623,0.30312 -0.1487,0.071 -0.5399,0.25366 -0.86063,0.37309 -0.99492,0.37047 -1.33842,0.49088 -2.07113,0.65749 -0.50616,0.10634 -0.99955,0.21731 -0.99955,0.21731 0,0 0.21676,-0.0246 0.43919,0.0381 0.29975,0.0845 0.49008,0.42019 0.49008,0.74842 0,0.30722 -0.15099,1.03967 -0.15099,1.03967 0,0 0.0782,-0.071 0.12629,-0.11543 0.18331,-0.1695 1.06418,-0.75555 1.07792,-0.74868 0.0128,0.006 -1.5e-4,-4e-5 -1.5e-4,-4e-5 z m 44.65243,13.03641 c 2.5954,-0.84152 9.3737,-2.51506 18.8668,-4.65816 5.9497,-1.34316 8.1814,-2.28862 9.5526,-4.04696 2.2679,-2.90831 6.0088,-9.37741 6.6014,-11.41566 0.6037,-2.07674 0.5982,-2.30157 -0.074,-3.04458 -0.9968,-1.10147 -5.6495,-3.05985 -7.6472,-3.51096 -1.9977,-0.4511 -4.0925,-0.63249 -4.0925,-0.63249 l 5.8593,-0.45277 c 3.5944,-0.27775 7.0624,-0.54204 12.2163,-1.30449 3.9567,-0.58534 7.6928,-1.34751 8.3426,-1.4473 0.6497,-0.0998 2.2457,-0.37817 3.5466,-0.61867 2.9489,-0.54513 3.2906,-0.49419 0.655,0.3882 -2.7372,0.91641 -9.6585,3.26861 -11.2307,4.47928 -1.598,1.23051 -3.5115,4.25042 -4.909,6.38273 -3.9762,6.10421 -7.3653,12.49712 -7.778,14.67176 -0.2297,1.21031 -0.1393,1.32848 1.3511,1.76623 0.8786,0.25803 2.805,0.60179 4.281,0.764 1.492,0.16398 2.7067,0.32022 2.7067,0.32022 0,0 -0.5912,0.29255 -0.6897,0.34768 -0.7534,0.42163 -3.0254,0.58178 -17.3381,1.22233 -5.5605,0.24884 -12.5743,0.72105 -15.5862,1.04933 -4.4203,0.48178 -6.682,0.4032 -6.682,0.4032 0,0 2.0683,-0.58285 2.0482,-0.66304 z m 65.5044,0.55991 c -1.5796,-0.28524 -2.9488,-1.76164 -2.9488,-3.1795 0,-2.98867 6.3101,-12.51617 12.2107,-18.43687 3.529,-3.5409 8.0769,-6.89132 8.0769,-6.89132 0,0 -1.9384,2.41079 -3.7046,4.38014 -5.6689,6.32089 -9.0458,11.66122 -10.4684,16.55486 -0.6809,2.3421 -0.6761,2.4289 0.2026,3.6629 1.3152,1.84701 2.4751,1.95277 7.2814,0.66393 4.5632,-1.22364 6.0698,-2.06372 15.0465,-8.38969 6.092,-4.29319 17.8457,-15.65584 15.7968,-15.27125 -3.3104,0.62137 -8.2141,0.76691 -8.2141,0.76691 0,0 1.2002,-0.45851 2.7986,-0.88686 5.642,-1.51192 19.1963,-4.95746 19.1963,-4.95746 0,0 -3.2212,1.80681 -5.9897,3.36538 -5.7898,3.2595 -8.8452,6.05439 -12.9642,11.85911 -3.4785,4.90211 -5.2371,8.59756 -5.0672,10.64787 l 0.1304,1.57239 2.9487,0.11412 c 2.5896,0.10026 3.5884,-0.11519 8.2007,-1.76887 2.8886,-1.03564 5.7636,-1.56148 5.7636,-1.56148 0,0 -0.2122,0.12427 -0.3097,0.20661 -0.7221,0.61593 -15.2521,7.70034 -15.7409,7.85404 -0.3659,0.11507 -0.5577,0.17795 -0.5577,0.17795 0,0 0.5964,-0.47949 0.6885,-1.19771 0.067,-0.52566 0.024,-0.7053 -0.5417,-0.92215 -0.8174,-0.31365 -11.6991,0.4047 -20.2513,1.33688 -5.3279,0.58076 -9.4404,0.68729 -11.5843,0.30012 z m -91.4067,-0.82547 c -4.3897,-2.28538 -1.5306,-7.94705 6.5595,-12.98942 4.2507,-2.64934 8.4367,-4.20407 14.8577,-5.51827 5.1289,-1.0498 9.1037,-1.25745 16.9028,-0.8831 2.0597,0.099 2.6665,-1.25227 1.9272,-2.49801 -1.0303,-1.73598 -2.5871,-2.46843 -9.9217,-2.41689 -5.5258,0.0388 -7.5389,0.24936 -13.0972,1.3696 -3.6123,0.72806 -7.9249,1.78526 -9.5835,2.34938 -1.917,0.65201 -2.8997,0.82875 -2.9621,0.54766 -0.095,-0.42759 1.9397,-1.91465 6.0547,-4.39973 4.4002,-2.65736 7.5528,-4.05861 7.5528,-4.05861 0,0 -0.587,0.80378 -1.2056,1.61469 -0.6184,0.8109 -1.0498,1.47437 -0.9584,1.47437 0.091,0 1.2858,-0.38865 2.6543,-0.86366 11.6039,-4.0279 22.5948,-3.53945 25.4822,1.13246 1.5364,2.48596 1.0239,3.54122 -5.5406,11.40924 -3.2398,3.88322 -5.7175,7.11812 -5.5059,7.18864 0.2116,0.0706 2.3,-0.44052 4.6784,-0.98054 2.3946,-0.54368 4.4797,-0.92277 4.4797,-0.92277 0,0 -6.3343,2.80492 -7.5381,3.14761 -1.3592,0.38691 -9.051,3.1813 -11.5549,4.62561 -0.9782,0.56427 -3.3667,0.95362 -3.3667,0.95362 0,0 1.4765,-1.25873 3.9309,-3.33587 2.035,-1.72218 3.4766,-3.20572 3.2035,-3.29674 -0.2731,-0.0911 -2.4312,0.72127 -4.7957,1.80512 -6.9872,3.20282 -12.6085,4.89609 -16.9922,5.11849 -3.1041,0.15743 -4.0576,0.0538 -5.2611,-0.57288 z m 19.1036,-4.77034 c 4.3698,-1.15666 8.1899,-2.10302 8.4892,-2.10302 0.2992,0 2.9795,-2.39479 5.9562,-5.32177 l 5.4121,-5.32174 -2.1063,-0.37591 c -4.9738,-0.88773 -16.2404,1.03391 -21.641,3.6911 -3.9817,1.95905 -10.1633,7.74896 -10.1633,9.51927 0,2.71101 3.5632,2.68872 14.0531,-0.0879 z"/></g><g transform="translate(-820.43985,-494.65507)"><ellipse style="opacity:.399254;mix-blend-mode:color-dodge;fill:url(#b);stroke:none;stroke-width:.688698;stroke-linecap:square;paint-order:markers stroke fill" cx="1698.48" cy="451.15" rx="495.04" ry="131.02" transform="matrix(0.99416312,0.10788747,-0.14109513,0.98999604,0,0)"/></g></svg>
