<svg viewBox="0 0 508 51" fill="none" xmlns="http://www.w3.org/2000/svg">
<mask id="path-1-inside-1_13_176" fill="white">
<path d="M390.864 49.7842C387.426 48.064 385.915 46.882 383.714 43.1169C381.729 39.7214 381.581 35.9203 383.464 32.1587C384.848 29.3936 388.695 26.2213 388.695 26.2213C388.695 26.2213 387.577 27.7732 386.851 29.5459C385.215 33.5344 386.207 36.094 387.515 38.1117C389.679 41.4484 391.741 42.1866 395.256 43.3305C400.831 45.1446 409.59 40.8788 415.328 33.5556C417.998 30.1492 429.181 10.9773 429.181 9.80793C429.181 9.56298 421.418 9.46751 411.929 9.59539C399.796 9.75892 392.234 8.64228 392.234 8.64228C392.234 8.64228 394.221 8.32055 398.587 7.82512C402.467 7.38482 409.994 6.62536 415.315 6.13739C420.636 5.64946 430.938 4.2002 438.21 2.9168C449.292 0.960823 455.736 0 455.736 0C455.736 0 453.459 1.35748 449.538 3.2079C438.269 8.97139 430.227 16.2007 421.156 28.7201C411.298 42.3271 406.033 47.6669 400.391 49.7835C396.068 51.4053 394.105 51.4054 390.864 49.7842ZM1.59679 49.535C3.19298 49.045 7.83651 47.8587 11.9156 46.8987C25.1109 43.7934 34.0922 40.4901 39.8895 36.6099C45.0251 33.1726 45.2572 32.8998 51.5784 22.8718C55.1255 17.2446 58.9907 11.3716 60.1677 9.82062C61.3448 8.26964 62.1555 6.84785 61.9692 6.66107C61.783 6.47443 58.9258 6.77959 55.6199 7.33971C45.7833 9.00599 35.3466 13.9173 27.5499 20.5488C25.2449 22.5094 23.3497 23.6275 23.3497 23.6275C23.3497 23.6275 27.8951 17.866 32.8431 11.9767C39.7069 3.80716 42.0766 1.38843 42.8394 1.77341C43.3893 2.05108 53.9968 2.42355 66.4116 2.60135C78.8264 2.77915 90.2115 2.65459 89.2769 2.91783C88.3424 3.1811 81.0951 4.45991 75.6066 5.16648C70.1182 5.87305 65.1368 6.64002 64.5369 6.87084C63.937 7.10169 62.5561 9.07247 61.4683 11.2505C60.3805 13.4285 57.2317 18.9933 54.4709 23.6166C48.1817 34.1487 45.7925 39.0252 46.2877 40.3189C46.7521 41.5324 52.531 42.7049 55.8493 43.3387C57.165 43.59 59.005 44.1412 59.005 44.1412C59.005 44.1412 58.1427 44.75 42.3253 46.2391C36.1719 46.8183 27.7807 48.0219 23.6225 48.5189C17.6247 49.2357 -0.000534058 50.027 -0.000534058 50.027C-0.000534058 50.027 0.510651 49.8684 1.59679 49.535ZM63.0892 48.7957C61.5637 47.2661 61.5581 44.9068 61.6374 41.8819C61.9373 36.3126 64.3291 31.3008 67.8661 27.658C69.5154 25.9594 71.0655 25.6322 71.0655 25.6322C71.0655 25.6322 70.7334 26.0822 69.9001 27.2557C68.2315 29.6052 67.5384 34.7547 68.6185 36.7782C69.6606 38.7304 73.0337 38.5631 78.8262 36.2717C84.3161 34.1 95.4814 27.2527 98.111 24.445L99.9476 22.4839L85.2756 22.9338L70.6036 23.3837C70.6036 23.3837 70.0699 23.3673 69.749 22.1873C69.4282 21.0073 72.653 15.2755 75.0229 12.7296C77.2994 10.284 86.9562 5.65128 94.1433 3.55684C100.887 1.59161 108.437 0.800033 110.399 1.85258C113.523 3.52923 112.578 10.1685 108.38 16.0263C106.673 18.4087 104.986 19.1057 104.986 19.1057C104.986 19.1057 105.258 18.436 105.785 17.1711C107.06 14.1105 106.971 10.79 105.58 9.52775C104.954 8.9593 103.016 8.17397 101.274 7.78254C97.1114 6.84722 88.8202 8.40968 82.5347 11.3139C77.3214 13.7226 71.6504 18.6653 72.0136 20.4838C72.2942 21.8889 74.9201 21.8598 84.6237 20.3443C91.5255 19.2663 101.737 19.1173 103.51 20.0686C104.706 20.71 104.705 20.768 103.477 22.855C100.175 28.4656 85.071 41.0465 74.0044 47.4037C67.8597 50.9335 65.519 51.2319 63.0892 48.7957ZM98.8211 49.8327C95.6789 49.2213 93.8208 47.4865 93.8208 45.164C93.8208 42.8495 98.0645 34.3067 102.418 27.857C105.964 22.6032 121.029 3.92237 123.474 1.80138C124.904 0.56182 114.234 15.5687 109.154 22.3234C107.817 24.1016 105.672 27.6849 104.387 30.2862C102.33 34.4533 102.088 35.447 102.352 38.6402C102.598 41.6142 102.979 42.5472 104.478 43.8396C106.077 45.2184 106.792 45.3822 110.22 45.1551C118.551 44.6031 128.076 37.5356 140.12 22.97C151.454 9.26461 153.546 6.78967 155.673 4.57001C157.067 3.11492 157.929 2.28751 156.806 3.8946C154.184 7.65029 154.26 7.84132 155.861 7.49318C156.678 7.3157 162.279 6.85879 168.309 6.478C188.037 5.23226 195.255 4.20927 200.768 3.21853C205.727 2.32722 208.426 1.84016 208.426 1.84016C208.426 1.84016 207.387 2.49359 206.36 3.04464C205.296 3.6156 204.495 4.15898 204.103 4.47781C203.885 4.65462 202.462 5.86846 200.851 7.08525C196.887 10.0798 191.542 16.8725 187.737 23.751C180.543 36.758 175.456 43.42 170.409 46.4445C167.382 48.2582 166.162 48.5995 162.317 48.7077C158.483 48.8154 157.481 48.6068 155.773 47.3452C153.815 45.8985 153.556 45.8742 146.845 46.5079C143.043 46.8668 134.709 47.6184 128.324 48.178C121.939 48.7376 114.379 49.478 111.523 49.8235C105.72 50.5254 102.393 50.5279 98.8211 49.8327ZM152.509 44.3792C152.509 44.2405 151.935 42.8581 151.233 41.3078C149.599 37.6971 149.59 32.7463 151.213 29.7596L152.665 27.5337C152.665 27.5337 152.167 29.7128 152.069 30.8405C151.868 33.1699 152.005 34.9594 153.236 36.8504C154.07 38.1312 155.309 39.4454 156.987 40.9658C160.725 44.3512 164.538 44.7742 169.21 42.3218C173.949 39.834 175.819 38.1643 178.643 33.8985C180.99 30.3533 186.795 15.522 187.673 10.8261L188.123 8.42099L178.861 8.37386C173.767 8.34761 166.842 8.23696 163.473 8.12699C154.281 7.82737 153.521 8.04256 151.337 11.5599C150.311 13.2122 147.851 17.1827 145.871 20.3835C141.955 26.7112 138.321 35.2104 138.321 38.0387C138.321 40.3818 139.943 42.6157 142.434 43.7028C144.212 44.4784 152.509 45.0355 152.509 44.3792ZM166.26 49.4978C166.907 49.0171 174.574 46.2515 183.299 43.3521C192.023 40.4527 200.242 37.5275 201.564 36.8517C203.978 35.6169 207.707 31.562 211.954 25.5565C214.041 22.6044 220.226 11.1433 220.226 10.2275C220.226 9.32702 215.556 8.80278 209.708 7.96748C206.483 7.50692 203.853 6.83754 203.853 6.83754C203.853 6.83754 206.249 6.48591 210.513 6.17777C227.131 4.97676 253.78 2.16207 257.509 1.5931C258.381 1.46017 259.082 1.42062 259.082 1.42062C259.082 1.42062 258.501 1.70636 258.228 1.88289C257.669 2.24388 254.041 3.31108 250.166 4.2545C227.439 9.78773 223.817 11.3244 220.548 16.8222C219.839 18.0153 218.638 20.0322 217.88 21.3041C212.662 30.0612 207.355 39.8674 207.535 40.419C207.862 41.4191 212.974 41.2352 216.89 40.7503C218.816 40.5119 221.688 40.2435 221.688 40.2435C221.688 40.2435 214.93 43.4342 210.147 44.3507C207.355 44.8856 200.427 45.7459 194.751 46.2625C183.819 47.2576 171.946 48.7997 167.665 49.7806C165.427 50.2932 165.241 50.2557 166.26 49.4978ZM228.932 39.4672C230.287 38.8431 234.373 37.3504 237.871 35.7827C241.368 34.215 246.402 32.7359 246.402 32.7359C246.402 32.7359 243.998 34.3181 242.18 35.499C238.18 38.0979 236.304 40.5716 237.684 41.427C239.213 42.3745 245.319 42.8871 250.15 42.4735C255.871 41.9838 267.87 38.642 272 36.3885C275.425 34.519 281.57 28.3304 281.176 27.1294C280.795 25.972 276.241 26.439 273.972 26.536C270.919 26.6665 259.606 29.3617 256.664 30.8823C255.245 31.6154 252.053 33.8435 249.57 35.8336C247.087 37.8236 244.796 39.4534 244.478 39.4553C244.161 39.4569 245.414 37.8542 247.264 35.893C249.2 33.8407 250.539 31.8617 250.417 31.2307C250.117 29.6652 246.617 29.0645 240.218 29.4802C235.434 29.7909 234.47 29.6682 232.641 28.5142C231.488 27.7871 230.545 26.8824 230.545 26.5038C230.545 23.8997 236.875 17.1657 242.917 13.342C251.782 7.73188 259.565 5.92153 277.946 5.19389C289.883 4.72135 293.104 4.3736 298.24 3.00243C301.598 2.10606 304.548 1.57652 304.548 1.57652C304.548 1.57652 299.177 5.13275 280.526 16.1883C277.688 17.8704 273.77 20.0241 271.82 20.9743C269.981 21.8699 268.414 22.588 268.414 22.588C268.414 22.588 269.467 21.7951 270.207 21.2336C271.271 20.4261 273.436 18.5532 275.018 17.0715C277.65 14.6055 277.831 14.2403 277.157 12.7569C275.961 10.1254 272.909 9.50823 265.024 10.3038C253.927 11.4237 243.357 15.6821 237.212 21.509C235.319 23.3048 231.514 26.4627 231.514 27.1006C231.514 28.9214 238.317 28.1158 245.224 26.8432C250.374 25.8942 251.916 25.2654 257.414 21.8695C260.877 19.7314 264.954 16.9597 266.475 15.7101C267.995 14.4605 269.24 13.6288 269.24 13.8618C269.24 14.095 267.354 16.5717 265.048 19.3659C262.742 22.16 260.856 24.77 260.856 25.1658C260.856 25.6769 262.993 25.7631 268.23 25.4631C275.529 25.0452 281.19 25.8176 282.23 27.3733C282.872 28.334 281.718 31.6052 279.89 34.0088C275.433 39.8667 262.787 46.1611 252.004 47.8883C248.992 48.3707 245.565 48.2852 238.623 47.5543C224.232 46.039 221.251 46.7946 208.121 49.8897C207.312 50.0803 205.221 50.5498 205.221 50.5498C205.221 50.5498 224.1 41.6938 228.932 39.4672ZM254.729 28.4664C255.001 28.2823 255.677 27.9807 256.304 27.8197C256.716 27.714 258.291 27.3391 258.646 27.2342C258.729 27.2096 259.269 27.0739 259.269 27.0739C259.269 27.0739 257.676 26.6203 257.531 26.2847C257.409 26.0016 258.241 25.1036 258.672 24.6087C258.672 24.6087 258.316 24.7857 257.713 25.074C257.485 25.183 256.886 25.4634 256.395 25.6467C254.872 26.2154 254.346 26.4002 253.225 26.656C252.45 26.8192 251.694 26.9895 251.694 26.9895C251.694 26.9895 252.026 26.9517 252.367 27.048C252.826 27.1777 253.117 27.693 253.117 28.1968C253.117 28.6684 252.886 29.7927 252.886 29.7927C252.886 29.7927 253.006 29.6838 253.079 29.6156C253.36 29.3554 254.708 28.4558 254.729 28.4664ZM323.091 48.4774C327.064 47.1857 337.442 44.6168 351.976 41.3271C361.084 39.2653 364.501 37.814 366.6 35.1149C370.072 30.6506 375.8 20.7204 376.707 17.5917C377.631 14.4039 377.623 14.0588 376.594 12.9182C375.068 11.2275 367.945 8.22133 364.886 7.52887C361.828 6.83643 358.621 6.55796 358.621 6.55796L367.591 5.86297C373.094 5.43662 378.403 5.03091 386.294 3.86054C392.351 2.96203 398.071 1.7921 399.066 1.63892C400.061 1.48572 402.504 1.0584 404.496 0.68923C409.01 -0.147553 409.534 -0.0693378 405.499 1.28514C401.308 2.69185 390.712 6.30251 388.305 8.16091C385.858 10.0498 382.929 14.6854 380.789 17.9585C374.702 27.3285 369.513 37.1417 368.881 40.4798C368.529 42.3377 368.668 42.5191 370.95 43.191C372.295 43.5871 375.244 44.1149 377.504 44.3639C379.788 44.6156 381.648 44.8553 381.648 44.8553C381.648 44.8553 380.743 45.3044 380.592 45.389C379.438 46.0362 375.96 46.2821 354.048 47.2653C345.535 47.6473 334.797 48.3721 330.186 48.8761C323.418 49.6156 319.956 49.495 319.956 49.495C319.956 49.495 323.122 48.6005 323.091 48.4774ZM423.377 49.3369C420.958 48.8991 418.862 46.6328 418.862 44.4563C418.862 39.8687 428.523 25.2438 437.556 16.1554C442.959 10.7201 449.922 5.57713 449.922 5.57713C449.922 5.57713 446.954 9.27775 444.25 12.3007C435.571 22.0034 430.401 30.2009 428.223 37.7127C427.181 41.3079 427.188 41.4411 428.534 43.3353C430.547 46.1705 432.323 46.3328 439.681 44.3544C446.667 42.4761 448.974 41.1866 462.717 31.4762C472.044 24.886 490.038 7.44417 486.902 8.03452C481.833 8.98833 474.326 9.21173 474.326 9.21173C474.326 9.21173 476.163 8.50794 478.611 7.85042C487.248 5.5296 508 0.240642 508 0.240642C508 0.240642 503.068 3.01409 498.829 5.40652C489.965 10.4099 485.288 14.7001 478.982 23.6105C473.656 31.1353 470.964 36.8078 471.224 39.9551L471.423 42.3687L475.938 42.5439C479.903 42.6978 481.432 42.3671 488.493 39.8287C492.915 38.239 497.317 37.4317 497.317 37.4317C497.317 37.4317 496.992 37.6226 496.843 37.749C495.737 38.6944 473.492 49.5691 472.744 49.805C472.184 49.9816 471.89 50.0782 471.89 50.0782C471.89 50.0782 472.803 49.3421 472.944 48.2396C473.047 47.4327 472.981 47.157 472.115 46.8241C470.863 46.3427 454.204 47.4453 441.11 48.8762C432.954 49.7677 426.659 49.9312 423.377 49.3369ZM283.435 48.0698C276.715 44.5617 281.092 35.8709 293.478 28.1308C299.985 24.064 306.394 21.6775 316.224 19.6602C324.077 18.0487 330.162 17.73 342.102 18.3046C345.256 18.4566 346.185 16.3824 345.053 14.4701C343.475 11.8054 341.092 10.681 329.863 10.7601C321.403 10.8197 318.321 11.1429 309.811 12.8625C304.281 13.9801 297.678 15.6029 295.139 16.4689C292.204 17.4697 290.7 17.741 290.604 17.3095C290.459 16.6532 293.574 14.3705 299.874 10.5559C306.61 6.47676 311.437 4.32585 311.437 4.32585C311.437 4.32585 310.538 5.55966 309.591 6.80442C308.644 8.04916 307.984 9.06759 308.124 9.06759C308.263 9.06759 310.092 8.47102 312.188 7.74188C329.953 1.55899 346.78 2.30875 351.2 9.4802C353.553 13.2962 352.768 14.916 342.718 26.9936C337.758 32.9544 333.964 37.92 334.288 38.0283C334.612 38.1366 337.81 37.3521 341.451 36.5231C345.117 35.6886 348.309 35.1066 348.309 35.1066C348.309 35.1066 338.612 39.4122 336.769 39.9382C334.688 40.5321 322.912 44.8216 319.078 47.0386C317.581 47.9048 313.924 48.5024 313.924 48.5024C313.924 48.5024 316.184 46.5703 319.942 43.3819C323.058 40.7383 325.265 38.461 324.847 38.3213C324.428 38.1815 321.124 39.4285 317.505 41.0922C306.807 46.0086 298.201 48.6077 291.49 48.9491C286.737 49.1908 285.278 49.0317 283.435 48.0698ZM312.682 40.7472C319.372 38.9717 325.221 37.5191 325.679 37.5191C326.137 37.5191 330.241 33.843 334.798 29.35L343.084 21.1811L339.859 20.6041C332.244 19.2414 314.995 22.1912 306.727 26.27C300.631 29.2772 291.167 38.1648 291.167 40.8822C291.167 45.0437 296.622 45.0094 312.682 40.7472Z"/>
</mask>
<path d="M390.864 49.7842C387.426 48.064 385.915 46.882 383.714 43.1169C381.729 39.7214 381.581 35.9203 383.464 32.1587C384.848 29.3936 388.695 26.2213 388.695 26.2213C388.695 26.2213 387.577 27.7732 386.851 29.5459C385.215 33.5344 386.207 36.094 387.515 38.1117C389.679 41.4484 391.741 42.1866 395.256 43.3305C400.831 45.1446 409.59 40.8788 415.328 33.5556C417.998 30.1492 429.181 10.9773 429.181 9.80793C429.181 9.56298 421.418 9.46751 411.929 9.59539C399.796 9.75892 392.234 8.64228 392.234 8.64228C392.234 8.64228 394.221 8.32055 398.587 7.82512C402.467 7.38482 409.994 6.62536 415.315 6.13739C420.636 5.64946 430.938 4.2002 438.21 2.9168C449.292 0.960823 455.736 0 455.736 0C455.736 0 453.459 1.35748 449.538 3.2079C438.269 8.97139 430.227 16.2007 421.156 28.7201C411.298 42.3271 406.033 47.6669 400.391 49.7835C396.068 51.4053 394.105 51.4054 390.864 49.7842ZM1.59679 49.535C3.19298 49.045 7.83651 47.8587 11.9156 46.8987C25.1109 43.7934 34.0922 40.4901 39.8895 36.6099C45.0251 33.1726 45.2572 32.8998 51.5784 22.8718C55.1255 17.2446 58.9907 11.3716 60.1677 9.82062C61.3448 8.26964 62.1555 6.84785 61.9692 6.66107C61.783 6.47443 58.9258 6.77959 55.6199 7.33971C45.7833 9.00599 35.3466 13.9173 27.5499 20.5488C25.2449 22.5094 23.3497 23.6275 23.3497 23.6275C23.3497 23.6275 27.8951 17.866 32.8431 11.9767C39.7069 3.80716 42.0766 1.38843 42.8394 1.77341C43.3893 2.05108 53.9968 2.42355 66.4116 2.60135C78.8264 2.77915 90.2115 2.65459 89.2769 2.91783C88.3424 3.1811 81.0951 4.45991 75.6066 5.16648C70.1182 5.87305 65.1368 6.64002 64.5369 6.87084C63.937 7.10169 62.5561 9.07247 61.4683 11.2505C60.3805 13.4285 57.2317 18.9933 54.4709 23.6166C48.1817 34.1487 45.7925 39.0252 46.2877 40.3189C46.7521 41.5324 52.531 42.7049 55.8493 43.3387C57.165 43.59 59.005 44.1412 59.005 44.1412C59.005 44.1412 58.1427 44.75 42.3253 46.2391C36.1719 46.8183 27.7807 48.0219 23.6225 48.5189C17.6247 49.2357 -0.000534058 50.027 -0.000534058 50.027C-0.000534058 50.027 0.510651 49.8684 1.59679 49.535ZM63.0892 48.7957C61.5637 47.2661 61.5581 44.9068 61.6374 41.8819C61.9373 36.3126 64.3291 31.3008 67.8661 27.658C69.5154 25.9594 71.0655 25.6322 71.0655 25.6322C71.0655 25.6322 70.7334 26.0822 69.9001 27.2557C68.2315 29.6052 67.5384 34.7547 68.6185 36.7782C69.6606 38.7304 73.0337 38.5631 78.8262 36.2717C84.3161 34.1 95.4814 27.2527 98.111 24.445L99.9476 22.4839L85.2756 22.9338L70.6036 23.3837C70.6036 23.3837 70.0699 23.3673 69.749 22.1873C69.4282 21.0073 72.653 15.2755 75.0229 12.7296C77.2994 10.284 86.9562 5.65128 94.1433 3.55684C100.887 1.59161 108.437 0.800033 110.399 1.85258C113.523 3.52923 112.578 10.1685 108.38 16.0263C106.673 18.4087 104.986 19.1057 104.986 19.1057C104.986 19.1057 105.258 18.436 105.785 17.1711C107.06 14.1105 106.971 10.79 105.58 9.52775C104.954 8.9593 103.016 8.17397 101.274 7.78254C97.1114 6.84722 88.8202 8.40968 82.5347 11.3139C77.3214 13.7226 71.6504 18.6653 72.0136 20.4838C72.2942 21.8889 74.9201 21.8598 84.6237 20.3443C91.5255 19.2663 101.737 19.1173 103.51 20.0686C104.706 20.71 104.705 20.768 103.477 22.855C100.175 28.4656 85.071 41.0465 74.0044 47.4037C67.8597 50.9335 65.519 51.2319 63.0892 48.7957ZM98.8211 49.8327C95.6789 49.2213 93.8208 47.4865 93.8208 45.164C93.8208 42.8495 98.0645 34.3067 102.418 27.857C105.964 22.6032 121.029 3.92237 123.474 1.80138C124.904 0.56182 114.234 15.5687 109.154 22.3234C107.817 24.1016 105.672 27.6849 104.387 30.2862C102.33 34.4533 102.088 35.447 102.352 38.6402C102.598 41.6142 102.979 42.5472 104.478 43.8396C106.077 45.2184 106.792 45.3822 110.22 45.1551C118.551 44.6031 128.076 37.5356 140.12 22.97C151.454 9.26461 153.546 6.78967 155.673 4.57001C157.067 3.11492 157.929 2.28751 156.806 3.8946C154.184 7.65029 154.26 7.84132 155.861 7.49318C156.678 7.3157 162.279 6.85879 168.309 6.478C188.037 5.23226 195.255 4.20927 200.768 3.21853C205.727 2.32722 208.426 1.84016 208.426 1.84016C208.426 1.84016 207.387 2.49359 206.36 3.04464C205.296 3.6156 204.495 4.15898 204.103 4.47781C203.885 4.65462 202.462 5.86846 200.851 7.08525C196.887 10.0798 191.542 16.8725 187.737 23.751C180.543 36.758 175.456 43.42 170.409 46.4445C167.382 48.2582 166.162 48.5995 162.317 48.7077C158.483 48.8154 157.481 48.6068 155.773 47.3452C153.815 45.8985 153.556 45.8742 146.845 46.5079C143.043 46.8668 134.709 47.6184 128.324 48.178C121.939 48.7376 114.379 49.478 111.523 49.8235C105.72 50.5254 102.393 50.5279 98.8211 49.8327ZM152.509 44.3792C152.509 44.2405 151.935 42.8581 151.233 41.3078C149.599 37.6971 149.59 32.7463 151.213 29.7596L152.665 27.5337C152.665 27.5337 152.167 29.7128 152.069 30.8405C151.868 33.1699 152.005 34.9594 153.236 36.8504C154.07 38.1312 155.309 39.4454 156.987 40.9658C160.725 44.3512 164.538 44.7742 169.21 42.3218C173.949 39.834 175.819 38.1643 178.643 33.8985C180.99 30.3533 186.795 15.522 187.673 10.8261L188.123 8.42099L178.861 8.37386C173.767 8.34761 166.842 8.23696 163.473 8.12699C154.281 7.82737 153.521 8.04256 151.337 11.5599C150.311 13.2122 147.851 17.1827 145.871 20.3835C141.955 26.7112 138.321 35.2104 138.321 38.0387C138.321 40.3818 139.943 42.6157 142.434 43.7028C144.212 44.4784 152.509 45.0355 152.509 44.3792ZM166.26 49.4978C166.907 49.0171 174.574 46.2515 183.299 43.3521C192.023 40.4527 200.242 37.5275 201.564 36.8517C203.978 35.6169 207.707 31.562 211.954 25.5565C214.041 22.6044 220.226 11.1433 220.226 10.2275C220.226 9.32702 215.556 8.80278 209.708 7.96748C206.483 7.50692 203.853 6.83754 203.853 6.83754C203.853 6.83754 206.249 6.48591 210.513 6.17777C227.131 4.97676 253.78 2.16207 257.509 1.5931C258.381 1.46017 259.082 1.42062 259.082 1.42062C259.082 1.42062 258.501 1.70636 258.228 1.88289C257.669 2.24388 254.041 3.31108 250.166 4.2545C227.439 9.78773 223.817 11.3244 220.548 16.8222C219.839 18.0153 218.638 20.0322 217.88 21.3041C212.662 30.0612 207.355 39.8674 207.535 40.419C207.862 41.4191 212.974 41.2352 216.89 40.7503C218.816 40.5119 221.688 40.2435 221.688 40.2435C221.688 40.2435 214.93 43.4342 210.147 44.3507C207.355 44.8856 200.427 45.7459 194.751 46.2625C183.819 47.2576 171.946 48.7997 167.665 49.7806C165.427 50.2932 165.241 50.2557 166.26 49.4978ZM228.932 39.4672C230.287 38.8431 234.373 37.3504 237.871 35.7827C241.368 34.215 246.402 32.7359 246.402 32.7359C246.402 32.7359 243.998 34.3181 242.18 35.499C238.18 38.0979 236.304 40.5716 237.684 41.427C239.213 42.3745 245.319 42.8871 250.15 42.4735C255.871 41.9838 267.87 38.642 272 36.3885C275.425 34.519 281.57 28.3304 281.176 27.1294C280.795 25.972 276.241 26.439 273.972 26.536C270.919 26.6665 259.606 29.3617 256.664 30.8823C255.245 31.6154 252.053 33.8435 249.57 35.8336C247.087 37.8236 244.796 39.4534 244.478 39.4553C244.161 39.4569 245.414 37.8542 247.264 35.893C249.2 33.8407 250.539 31.8617 250.417 31.2307C250.117 29.6652 246.617 29.0645 240.218 29.4802C235.434 29.7909 234.47 29.6682 232.641 28.5142C231.488 27.7871 230.545 26.8824 230.545 26.5038C230.545 23.8997 236.875 17.1657 242.917 13.342C251.782 7.73188 259.565 5.92153 277.946 5.19389C289.883 4.72135 293.104 4.3736 298.24 3.00243C301.598 2.10606 304.548 1.57652 304.548 1.57652C304.548 1.57652 299.177 5.13275 280.526 16.1883C277.688 17.8704 273.77 20.0241 271.82 20.9743C269.981 21.8699 268.414 22.588 268.414 22.588C268.414 22.588 269.467 21.7951 270.207 21.2336C271.271 20.4261 273.436 18.5532 275.018 17.0715C277.65 14.6055 277.831 14.2403 277.157 12.7569C275.961 10.1254 272.909 9.50823 265.024 10.3038C253.927 11.4237 243.357 15.6821 237.212 21.509C235.319 23.3048 231.514 26.4627 231.514 27.1006C231.514 28.9214 238.317 28.1158 245.224 26.8432C250.374 25.8942 251.916 25.2654 257.414 21.8695C260.877 19.7314 264.954 16.9597 266.475 15.7101C267.995 14.4605 269.24 13.6288 269.24 13.8618C269.24 14.095 267.354 16.5717 265.048 19.3659C262.742 22.16 260.856 24.77 260.856 25.1658C260.856 25.6769 262.993 25.7631 268.23 25.4631C275.529 25.0452 281.19 25.8176 282.23 27.3733C282.872 28.334 281.718 31.6052 279.89 34.0088C275.433 39.8667 262.787 46.1611 252.004 47.8883C248.992 48.3707 245.565 48.2852 238.623 47.5543C224.232 46.039 221.251 46.7946 208.121 49.8897C207.312 50.0803 205.221 50.5498 205.221 50.5498C205.221 50.5498 224.1 41.6938 228.932 39.4672ZM254.729 28.4664C255.001 28.2823 255.677 27.9807 256.304 27.8197C256.716 27.714 258.291 27.3391 258.646 27.2342C258.729 27.2096 259.269 27.0739 259.269 27.0739C259.269 27.0739 257.676 26.6203 257.531 26.2847C257.409 26.0016 258.241 25.1036 258.672 24.6087C258.672 24.6087 258.316 24.7857 257.713 25.074C257.485 25.183 256.886 25.4634 256.395 25.6467C254.872 26.2154 254.346 26.4002 253.225 26.656C252.45 26.8192 251.694 26.9895 251.694 26.9895C251.694 26.9895 252.026 26.9517 252.367 27.048C252.826 27.1777 253.117 27.693 253.117 28.1968C253.117 28.6684 252.886 29.7927 252.886 29.7927C252.886 29.7927 253.006 29.6838 253.079 29.6156C253.36 29.3554 254.708 28.4558 254.729 28.4664ZM323.091 48.4774C327.064 47.1857 337.442 44.6168 351.976 41.3271C361.084 39.2653 364.501 37.814 366.6 35.1149C370.072 30.6506 375.8 20.7204 376.707 17.5917C377.631 14.4039 377.623 14.0588 376.594 12.9182C375.068 11.2275 367.945 8.22133 364.886 7.52887C361.828 6.83643 358.621 6.55796 358.621 6.55796L367.591 5.86297C373.094 5.43662 378.403 5.03091 386.294 3.86054C392.351 2.96203 398.071 1.7921 399.066 1.63892C400.061 1.48572 402.504 1.0584 404.496 0.68923C409.01 -0.147553 409.534 -0.0693378 405.499 1.28514C401.308 2.69185 390.712 6.30251 388.305 8.16091C385.858 10.0498 382.929 14.6854 380.789 17.9585C374.702 27.3285 369.513 37.1417 368.881 40.4798C368.529 42.3377 368.668 42.5191 370.95 43.191C372.295 43.5871 375.244 44.1149 377.504 44.3639C379.788 44.6156 381.648 44.8553 381.648 44.8553C381.648 44.8553 380.743 45.3044 380.592 45.389C379.438 46.0362 375.96 46.2821 354.048 47.2653C345.535 47.6473 334.797 48.3721 330.186 48.8761C323.418 49.6156 319.956 49.495 319.956 49.495C319.956 49.495 323.122 48.6005 323.091 48.4774ZM423.377 49.3369C420.958 48.8991 418.862 46.6328 418.862 44.4563C418.862 39.8687 428.523 25.2438 437.556 16.1554C442.959 10.7201 449.922 5.57713 449.922 5.57713C449.922 5.57713 446.954 9.27775 444.25 12.3007C435.571 22.0034 430.401 30.2009 428.223 37.7127C427.181 41.3079 427.188 41.4411 428.534 43.3353C430.547 46.1705 432.323 46.3328 439.681 44.3544C446.667 42.4761 448.974 41.1866 462.717 31.4762C472.044 24.886 490.038 7.44417 486.902 8.03452C481.833 8.98833 474.326 9.21173 474.326 9.21173C474.326 9.21173 476.163 8.50794 478.611 7.85042C487.248 5.5296 508 0.240642 508 0.240642C508 0.240642 503.068 3.01409 498.829 5.40652C489.965 10.4099 485.288 14.7001 478.982 23.6105C473.656 31.1353 470.964 36.8078 471.224 39.9551L471.423 42.3687L475.938 42.5439C479.903 42.6978 481.432 42.3671 488.493 39.8287C492.915 38.239 497.317 37.4317 497.317 37.4317C497.317 37.4317 496.992 37.6226 496.843 37.749C495.737 38.6944 473.492 49.5691 472.744 49.805C472.184 49.9816 471.89 50.0782 471.89 50.0782C471.89 50.0782 472.803 49.3421 472.944 48.2396C473.047 47.4327 472.981 47.157 472.115 46.8241C470.863 46.3427 454.204 47.4453 441.11 48.8762C432.954 49.7677 426.659 49.9312 423.377 49.3369ZM283.435 48.0698C276.715 44.5617 281.092 35.8709 293.478 28.1308C299.985 24.064 306.394 21.6775 316.224 19.6602C324.077 18.0487 330.162 17.73 342.102 18.3046C345.256 18.4566 346.185 16.3824 345.053 14.4701C343.475 11.8054 341.092 10.681 329.863 10.7601C321.403 10.8197 318.321 11.1429 309.811 12.8625C304.281 13.9801 297.678 15.6029 295.139 16.4689C292.204 17.4697 290.7 17.741 290.604 17.3095C290.459 16.6532 293.574 14.3705 299.874 10.5559C306.61 6.47676 311.437 4.32585 311.437 4.32585C311.437 4.32585 310.538 5.55966 309.591 6.80442C308.644 8.04916 307.984 9.06759 308.124 9.06759C308.263 9.06759 310.092 8.47102 312.188 7.74188C329.953 1.55899 346.78 2.30875 351.2 9.4802C353.553 13.2962 352.768 14.916 342.718 26.9936C337.758 32.9544 333.964 37.92 334.288 38.0283C334.612 38.1366 337.81 37.3521 341.451 36.5231C345.117 35.6886 348.309 35.1066 348.309 35.1066C348.309 35.1066 338.612 39.4122 336.769 39.9382C334.688 40.5321 322.912 44.8216 319.078 47.0386C317.581 47.9048 313.924 48.5024 313.924 48.5024C313.924 48.5024 316.184 46.5703 319.942 43.3819C323.058 40.7383 325.265 38.461 324.847 38.3213C324.428 38.1815 321.124 39.4285 317.505 41.0922C306.807 46.0086 298.201 48.6077 291.49 48.9491C286.737 49.1908 285.278 49.0317 283.435 48.0698ZM312.682 40.7472C319.372 38.9717 325.221 37.5191 325.679 37.5191C326.137 37.5191 330.241 33.843 334.798 29.35L343.084 21.1811L339.859 20.6041C332.244 19.2414 314.995 22.1912 306.727 26.27C300.631 29.2772 291.167 38.1648 291.167 40.8822C291.167 45.0437 296.622 45.0094 312.682 40.7472Z" fill="url(#paint0_linear_13_176)" stroke="url(#paint1_linear_13_176)" stroke-width="0.4" mask="url(#path-1-inside-1_13_176)"/>
<defs>
<linearGradient id="paint0_linear_13_176" x1="254" y1="-0.000244706" x2="254" y2="50.9998" gradientUnits="userSpaceOnUse">
<stop stop-color="white"/>
<stop offset="0.254808" stop-color="#C8C8C8"/>
<stop offset="0.475962" stop-color="#EBEBEB"/>
<stop offset="0.524038" stop-color="#6D6D6D"/>
<stop offset="1" stop-color="#999999"/>
</linearGradient>
<linearGradient id="paint1_linear_13_176" x1="254" y1="-0.000244706" x2="254" y2="50.9998" gradientUnits="userSpaceOnUse">
<stop stop-color="white" stop-opacity="0"/>
<stop offset="1" stop-color="white"/>
</linearGradient>
</defs>
</svg>
