<svg width="403" height="100" viewBox="0 0 403 100" fill="none" xmlns="http://www.w3.org/2000/svg">
<path d="M18.2061 76.1905H1.30856L2.33266 32.1905H24.3507L26.7402 46.9905H27.2523L29.6418 32.1905H51.4892L52.5133 76.1905H35.6157V53.3333H35.1037L31.5193 76.1905H22.3025L18.7182 52.7619H18.2061V76.1905ZM99.8672 76.1905H81.4335L80.8646 70.9333H72.7856L72.2166 76.1905H53.783L65.048 32.1905H88.6021L99.8672 76.1905ZM75.2889 48.4762L74.6631 53.9619H78.987L78.3612 48.4762H75.2889ZM121.636 54.819L140.241 55.9048V63.7905C140.241 67.9048 138.382 71.1238 134.665 73.4476C130.986 75.7714 125.846 76.9333 119.247 76.9333C115.416 76.9333 112.021 76.419 109.063 75.3905C106.104 74.3619 103.734 72.8762 101.951 70.9333C100.168 68.9524 99.1062 66.5714 98.7649 63.7905C98.6511 62.7619 98.5563 61.4095 98.4804 59.7333C98.4045 58.019 98.3666 56.1524 98.3666 54.1333C98.3666 52.1143 98.4045 50.2667 98.4804 48.5905C98.5563 46.9143 98.6511 45.5619 98.7649 44.5333C99.1062 41.7143 100.168 39.3333 101.951 37.3905C103.734 35.4095 106.104 33.9048 109.063 32.8762C112.021 31.8095 115.416 31.2762 119.247 31.2762C123.571 31.2762 127.288 31.8095 130.398 32.8762C133.546 33.9429 135.974 35.4667 137.68 37.4476C139.387 39.3905 140.241 41.7524 140.241 44.5333V49.7333L121.636 51.7333V47.1048C121.636 46.0762 121.124 45.5619 120.1 45.5619C119.076 45.5619 118.564 46.0762 118.564 47.1048V60.9905C118.564 62.019 119.076 62.5333 120.1 62.5333C121.124 62.5333 121.636 62.019 121.636 60.9905V54.819Z" fill="#291334"/>
<path d="M231.559 76.1905H214.661L215.686 32.1905H237.704L240.093 46.9905H240.605L242.995 32.1905H264.842L265.866 76.1905H248.969V53.3333H248.457L244.872 76.1905H235.655L232.071 52.7619H231.559V76.1905ZM313.22 76.1905H294.786L294.217 70.9333H286.139L285.57 76.1905H267.136L278.401 32.1905H301.955L313.22 76.1905ZM288.642 48.4762L288.016 53.9619H292.34L291.714 48.4762H288.642ZM331.291 76.1905H314.393V32.1905H334.363L338.175 48.1905H338.687L338.459 32.1905H355.357V76.1905H336.923L331.518 55.6191H331.006L331.291 76.1905ZM402.672 76.1905H384.239L383.67 70.9333H375.591L375.022 76.1905H356.588L367.853 32.1905H391.407L402.672 76.1905ZM378.094 48.4762L377.468 53.9619H381.792L381.166 48.4762H378.094Z" fill="#291334"/>
<path d="M168.849 50.9438C168.59 51.6386 168.33 52.3438 168.071 53.06C167.812 53.7762 167.552 54.5138 167.293 55.2733C168.655 53.711 169.821 52.4414 170.793 51.4648C171.788 50.4667 172.619 49.6852 173.289 49.121C173.98 48.5567 174.531 48.1771 174.942 47.9819C175.374 47.7648 175.709 47.6562 175.947 47.6562C176.228 47.6562 176.649 47.7971 177.211 48.0795C177.772 48.3614 178.334 48.7086 178.896 49.121C179.48 49.5333 179.976 49.9567 180.387 50.3905C180.819 50.8248 181.035 51.2043 181.035 51.53C181.035 51.5952 181.024 51.6819 181.003 51.7905C180.981 51.8771 180.949 51.9967 180.905 52.1486C180.733 52.6909 180.506 53.331 180.225 54.069C179.966 54.8067 179.685 55.5771 179.382 56.38C179.08 57.1614 178.777 57.9533 178.475 58.7567C178.172 59.5376 177.902 60.2757 177.665 60.97C177.427 61.6643 177.232 62.2719 177.081 62.7929C176.93 63.3138 176.854 63.6938 176.854 63.9324C176.854 64.0624 176.919 64.1276 177.049 64.1276C177.286 64.1276 177.643 63.9867 178.118 63.7043C178.593 63.4224 179.134 63.0533 179.739 62.5976C180.365 62.1419 181.013 61.6429 181.683 61.1005C182.353 60.5576 182.99 60.0262 183.595 59.5052C184.222 58.9629 184.784 58.4743 185.281 58.0405C185.778 57.6062 186.156 57.281 186.415 57.0638C186.631 57.259 186.869 57.5086 187.129 57.8124C187.387 58.1162 187.636 58.3986 187.874 58.659C187.398 59.1362 186.804 59.7224 186.091 60.4167C185.378 61.0895 184.6 61.7838 183.758 62.5C182.936 63.2162 182.072 63.9324 181.165 64.6486C180.279 65.3648 179.415 66.0048 178.572 66.569C177.729 67.1333 176.941 67.589 176.206 67.9362C175.471 68.2833 174.856 68.4571 174.359 68.4571C174.034 68.4571 173.624 68.3376 173.127 68.0991C172.63 67.8819 172.144 67.6 171.669 67.2524C171.215 66.9271 170.826 66.5581 170.502 66.1457C170.178 65.7333 170.016 65.3319 170.016 64.9414C170.21 64.0514 170.469 63.0424 170.793 61.9143C171.139 60.7857 171.506 59.6352 171.896 58.4633C172.284 57.27 172.684 56.0981 173.095 54.9481C173.527 53.7762 173.937 52.7019 174.326 51.7252L174.261 51.7905C173.851 52.2895 173.257 52.9514 172.479 53.7762C171.723 54.579 170.858 55.6205 169.886 56.901C168.914 58.1595 167.887 59.6895 166.807 61.491C165.727 63.2705 164.668 65.3862 163.631 67.8386C163.501 68.1424 163.382 68.381 163.274 68.5548C163.166 68.7281 162.961 68.8152 162.658 68.8152C162.291 68.8152 161.87 68.7067 161.394 68.4895C160.941 68.2943 160.476 68.0229 160.001 67.6757C159.504 67.3505 159.018 66.9814 158.543 66.569C158.045 66.1567 157.602 65.7443 157.214 65.3319C157.214 65.2019 157.279 64.8329 157.408 64.2252C157.516 63.6176 157.678 62.8581 157.894 61.9467C158.11 61.0133 158.38 59.961 158.704 58.789C159.029 57.5957 159.396 56.3476 159.807 55.0457C160.217 53.7433 160.67 52.4195 161.168 51.0743C161.643 49.7071 162.162 48.3943 162.723 47.1354C163.631 47.5694 164.635 48.101 165.737 48.7305C166.861 49.36 167.898 50.0976 168.849 50.9438ZM207.806 24.5443C207.806 25.3038 207.568 26.1827 207.093 27.181C206.639 28.1792 206.067 29.1775 205.375 30.1758C204.706 31.174 203.982 32.1072 203.204 32.9752C202.426 33.8216 201.735 34.4944 201.13 34.9935C201.022 34.9718 200.87 34.9067 200.676 34.7982C200.482 34.668 200.276 34.5269 200.06 34.375C199.866 34.2231 199.682 34.0712 199.509 33.9193C199.358 33.7674 199.271 33.6589 199.25 33.5938C199.487 33.3984 199.79 33.0729 200.157 32.6172C200.525 32.1615 200.87 31.684 201.194 31.1849C201.54 30.664 201.832 30.1758 202.069 29.72C202.329 29.2426 202.458 28.8954 202.458 28.6784C202.458 28.3529 202.297 28.0273 201.972 27.7018C201.67 27.3546 201.313 27.04 200.903 26.7578C200.492 26.454 200.103 26.1936 199.736 25.9766C199.369 25.7379 199.142 25.5642 199.055 25.4557C199.142 25.0217 199.336 24.5117 199.639 23.9258C199.941 23.3399 200.265 22.7756 200.611 22.2331C200.978 21.6905 201.335 21.2131 201.681 20.8008C202.026 20.3668 202.286 20.0955 202.458 19.987C202.782 19.987 203.236 20.1389 203.82 20.4427C204.425 20.7248 205.019 21.0938 205.602 21.5495C206.207 21.9835 206.726 22.4718 207.158 23.0143C207.59 23.5569 207.806 24.0669 207.806 24.5443Z" fill="#291334"/>
</svg>
